<svg width="250" height="80" viewBox="0 0 250 80" fill="none" xmlns="http://www.w3.org/2000/svg">
<path d="M4 21.681V15C4 14.4477 4.44771 14 5 14H51C51.5523 14 52 14.4477 52 15V23.681C52 24.2333 51.5523 24.681 51 24.681H37.9677C36.3109 24.681 34.9677 26.0242 34.9677 27.681V72C34.9677 72.5523 34.52 73 33.9677 73H24.0323C22.3754 73 21.0323 71.6569 21.0323 70V25.681C21.0323 25.1287 20.5845 24.681 20.0323 24.681H7C5.34315 24.681 4 23.3379 4 21.681Z" fill="#FFA800" stroke="#FFA800"/>
<path d="M117.695 14H123.305C123.857 14 124.305 14.4477 124.305 15V26.4408H133.475C134.027 26.4408 134.475 26.8885 134.475 27.4408V34.253C134.475 34.8053 134.027 35.253 133.475 35.253H125.305C124.753 35.253 124.305 35.7007 124.305 36.253V57.5427C124.814 60.6529 126.847 60.6529 128.881 59.6162C130.508 58.7868 131.593 59.9618 131.932 60.6529L136 66.3549C131.119 69.2578 126.847 69.9835 125.322 69.9835C114.339 70.3982 111.593 62.8992 111.593 59.0978V35.253H108.542C106.508 35.253 106 33.8707 106 33.1795V27.9959L112.61 26.4408C113.288 23.3306 114.746 16.7992 115.153 15.5551C115.559 14.311 117.017 14 117.695 14Z" fill="#FFA800" stroke="#FFA800"/>
<path d="M48.66 36.94C50.2333 36.94 51.6667 37.1867 52.96 37.68C54.2533 38.1733 55.36 38.88 56.28 39.8C57.2133 40.72 57.9333 41.84 58.44 43.16C58.96 44.4667 59.22 45.94 59.22 47.58C59.22 49.2333 58.96 50.7267 58.44 52.06C57.9333 53.38 57.2133 54.5067 56.28 55.44C55.36 56.36 54.2533 57.0733 52.96 57.58C51.6667 58.0733 50.2333 58.32 48.66 58.32C47.0733 58.32 45.6267 58.0733 44.32 57.58C43.0267 57.0733 41.9067 56.36 40.96 55.44C40.0267 54.5067 39.3 53.38 38.78 52.06C38.2733 50.7267 38.02 49.2333 38.02 47.58C38.02 45.94 38.2733 44.4667 38.78 43.16C39.3 41.84 40.0267 40.72 40.96 39.8C41.9067 38.88 43.0267 38.1733 44.32 37.68C45.6267 37.1867 47.0733 36.94 48.66 36.94ZM48.66 53.72C50.0867 53.72 51.1333 53.22 51.8 52.22C52.48 51.2067 52.82 49.6733 52.82 47.62C52.82 45.5667 52.48 44.04 51.8 43.04C51.1333 42.04 50.0867 41.54 48.66 41.54C47.1933 41.54 46.12 42.04 45.44 43.04C44.76 44.04 44.42 45.5667 44.42 47.62C44.42 49.6733 44.76 51.2067 45.44 52.22C46.12 53.22 47.1933 53.72 48.66 53.72ZM74.9222 42.82C74.4555 42.3 73.9489 41.94 73.4022 41.74C72.8555 41.5267 72.2822 41.42 71.6822 41.42C71.1089 41.42 70.5822 41.5333 70.1022 41.76C69.6222 41.9867 69.2022 42.3533 68.8422 42.86C68.4955 43.3533 68.2222 44 68.0222 44.8C67.8222 45.6 67.7222 46.5667 67.7222 47.7C67.7222 48.7933 67.8022 49.7133 67.9622 50.46C68.1222 51.2067 68.3422 51.8133 68.6222 52.28C68.9155 52.7333 69.2622 53.06 69.6622 53.26C70.0622 53.46 70.5089 53.56 71.0022 53.56C71.4555 53.56 71.8622 53.52 72.2222 53.44C72.5955 53.3467 72.9355 53.22 73.2422 53.06C73.5489 52.9 73.8355 52.7 74.1022 52.46C74.3822 52.2067 74.6555 51.92 74.9222 51.6V42.82ZM81.1222 28.06V58H77.2822C76.5089 58 76.0022 57.6533 75.7622 56.96L75.2822 55.38C74.8689 55.82 74.4355 56.22 73.9822 56.58C73.5289 56.94 73.0355 57.2533 72.5022 57.52C71.9822 57.7733 71.4155 57.9667 70.8022 58.1C70.2022 58.2467 69.5489 58.32 68.8422 58.32C67.7622 58.32 66.7622 58.08 65.8422 57.6C64.9222 57.12 64.1289 56.4267 63.4622 55.52C62.7955 54.6133 62.2689 53.5067 61.8822 52.2C61.5089 50.88 61.3222 49.38 61.3222 47.7C61.3222 46.1533 61.5355 44.72 61.9622 43.4C62.3889 42.0667 62.9889 40.92 63.7622 39.96C64.5489 38.9867 65.4889 38.2267 66.5822 37.68C67.6755 37.1333 68.8822 36.86 70.2022 36.86C71.2822 36.86 72.1889 37.0133 72.9222 37.32C73.6555 37.6267 74.3222 38.04 74.9222 38.56V28.06H81.1222ZM94.8709 36.94C96.4443 36.94 97.8776 37.1867 99.1709 37.68C100.464 38.1733 101.571 38.88 102.491 39.8C103.424 40.72 104.144 41.84 104.651 43.16C105.171 44.4667 105.431 45.94 105.431 47.58C105.431 49.2333 105.171 50.7267 104.651 52.06C104.144 53.38 103.424 54.5067 102.491 55.44C101.571 56.36 100.464 57.0733 99.1709 57.58C97.8776 58.0733 96.4443 58.32 94.8709 58.32C93.2843 58.32 91.8376 58.0733 90.5309 57.58C89.2376 57.0733 88.1176 56.36 87.1709 55.44C86.2376 54.5067 85.5109 53.38 84.9909 52.06C84.4843 50.7267 84.2309 49.2333 84.2309 47.58C84.2309 45.94 84.4843 44.4667 84.9909 43.16C85.5109 41.84 86.2376 40.72 87.1709 39.8C88.1176 38.88 89.2376 38.1733 90.5309 37.68C91.8376 37.1867 93.2843 36.94 94.8709 36.94ZM94.8709 53.72C96.2976 53.72 97.3443 53.22 98.0109 52.22C98.6909 51.2067 99.0309 49.6733 99.0309 47.62C99.0309 45.5667 98.6909 44.04 98.0109 43.04C97.3443 42.04 96.2976 41.54 94.8709 41.54C93.4043 41.54 92.3309 42.04 91.6509 43.04C90.9709 44.04 90.6309 45.5667 90.6309 47.62C90.6309 49.6733 90.9709 51.2067 91.6509 52.22C92.3309 53.22 93.4043 53.72 94.8709 53.72Z" fill="#397DBC"/>
<path d="M140.9 40.46C141.54 39.34 142.273 38.46 143.1 37.82C143.94 37.18 144.9 36.86 145.98 36.86C146.913 36.86 147.673 37.08 148.26 37.52L147.86 42.08C147.793 42.3733 147.68 42.5733 147.52 42.68C147.373 42.7867 147.167 42.84 146.9 42.84C146.793 42.84 146.653 42.8333 146.48 42.82C146.307 42.8067 146.127 42.7933 145.94 42.78C145.753 42.7533 145.56 42.7333 145.36 42.72C145.173 42.6933 145 42.68 144.84 42.68C143.933 42.68 143.207 42.92 142.66 43.4C142.127 43.88 141.673 44.5467 141.3 45.4V58H135.1V37.26H138.78C139.087 37.26 139.34 37.2867 139.54 37.34C139.753 37.3933 139.927 37.48 140.06 37.6C140.207 37.7067 140.313 37.8533 140.38 38.04C140.46 38.2267 140.527 38.4533 140.58 38.72L140.9 40.46ZM160.878 49.56C159.638 49.6133 158.618 49.72 157.818 49.88C157.018 50.04 156.385 50.24 155.918 50.48C155.451 50.72 155.125 50.9933 154.938 51.3C154.765 51.6067 154.678 51.94 154.678 52.3C154.678 53.0067 154.871 53.5067 155.258 53.8C155.645 54.08 156.211 54.22 156.958 54.22C157.758 54.22 158.458 54.08 159.058 53.8C159.658 53.52 160.265 53.0667 160.878 52.44V49.56ZM149.718 40.14C150.971 39.0333 152.358 38.2133 153.878 37.68C155.411 37.1333 157.051 36.86 158.798 36.86C160.051 36.86 161.178 37.0667 162.178 37.48C163.191 37.88 164.045 38.4467 164.738 39.18C165.445 39.9 165.985 40.76 166.358 41.76C166.731 42.76 166.918 43.8533 166.918 45.04V58H164.078C163.491 58 163.045 57.92 162.738 57.76C162.445 57.6 162.198 57.2667 161.998 56.76L161.558 55.62C161.038 56.06 160.538 56.4467 160.058 56.78C159.578 57.1133 159.078 57.4 158.558 57.64C158.051 57.8667 157.505 58.0333 156.918 58.14C156.345 58.26 155.705 58.32 154.998 58.32C154.051 58.32 153.191 58.2 152.418 57.96C151.645 57.7067 150.985 57.34 150.438 56.86C149.905 56.38 149.491 55.7867 149.198 55.08C148.905 54.36 148.758 53.5333 148.758 52.6C148.758 51.8533 148.945 51.1 149.318 50.34C149.691 49.5667 150.338 48.8667 151.258 48.24C152.178 47.6 153.418 47.0667 154.978 46.64C156.538 46.2133 158.505 45.9733 160.878 45.92V45.04C160.878 43.8267 160.625 42.9533 160.118 42.42C159.625 41.8733 158.918 41.6 157.998 41.6C157.265 41.6 156.665 41.68 156.198 41.84C155.731 42 155.311 42.18 154.938 42.38C154.578 42.58 154.225 42.76 153.878 42.92C153.531 43.08 153.118 43.16 152.638 43.16C152.211 43.16 151.851 43.0533 151.558 42.84C151.265 42.6267 151.025 42.3733 150.838 42.08L149.718 40.14ZM177.081 52.36C177.548 52.8667 178.055 53.2267 178.601 53.44C179.148 53.6533 179.701 53.76 180.261 53.76C180.848 53.76 181.388 53.6533 181.881 53.44C182.375 53.2133 182.795 52.8533 183.141 52.36C183.501 51.8533 183.781 51.1933 183.981 50.38C184.181 49.5533 184.281 48.54 184.281 47.34C184.281 46.3 184.201 45.42 184.041 44.7C183.895 43.9667 183.668 43.3733 183.361 42.92C183.068 42.4533 182.695 42.12 182.241 41.92C181.801 41.7067 181.295 41.6 180.721 41.6C179.961 41.6 179.301 41.7667 178.741 42.1C178.181 42.4333 177.628 42.92 177.081 43.56V52.36ZM177.081 39.46C177.881 38.7 178.755 38.0933 179.701 37.64C180.661 37.1733 181.728 36.94 182.901 36.94C184.075 36.94 185.141 37.18 186.101 37.66C187.061 38.14 187.881 38.8267 188.561 39.72C189.241 40.6 189.761 41.6667 190.121 42.92C190.495 44.1733 190.681 45.5733 190.681 47.12C190.681 48.8 190.468 50.3267 190.041 51.7C189.615 53.0733 189.008 54.2533 188.221 55.24C187.448 56.2133 186.521 56.9733 185.441 57.52C184.361 58.0533 183.168 58.32 181.861 58.32C181.235 58.32 180.675 58.26 180.181 58.14C179.688 58.02 179.235 57.8533 178.821 57.64C178.408 57.4133 178.028 57.1467 177.681 56.84C177.348 56.5333 177.021 56.2 176.701 55.84L176.481 56.88C176.375 57.3067 176.201 57.6 175.961 57.76C175.721 57.92 175.401 58 175.001 58H170.881V28.06H177.081V39.46ZM204.55 49.56C203.31 49.6133 202.29 49.72 201.49 49.88C200.69 50.04 200.057 50.24 199.59 50.48C199.123 50.72 198.797 50.9933 198.61 51.3C198.437 51.6067 198.35 51.94 198.35 52.3C198.35 53.0067 198.543 53.5067 198.93 53.8C199.317 54.08 199.883 54.22 200.63 54.22C201.43 54.22 202.13 54.08 202.73 53.8C203.33 53.52 203.937 53.0667 204.55 52.44V49.56ZM193.39 40.14C194.643 39.0333 196.03 38.2133 197.55 37.68C199.083 37.1333 200.723 36.86 202.47 36.86C203.723 36.86 204.85 37.0667 205.85 37.48C206.863 37.88 207.717 38.4467 208.41 39.18C209.117 39.9 209.657 40.76 210.03 41.76C210.403 42.76 210.59 43.8533 210.59 45.04V58H207.75C207.163 58 206.717 57.92 206.41 57.76C206.117 57.6 205.87 57.2667 205.67 56.76L205.23 55.62C204.71 56.06 204.21 56.4467 203.73 56.78C203.25 57.1133 202.75 57.4 202.23 57.64C201.723 57.8667 201.177 58.0333 200.59 58.14C200.017 58.26 199.377 58.32 198.67 58.32C197.723 58.32 196.863 58.2 196.09 57.96C195.317 57.7067 194.657 57.34 194.11 56.86C193.577 56.38 193.163 55.7867 192.87 55.08C192.577 54.36 192.43 53.5333 192.43 52.6C192.43 51.8533 192.617 51.1 192.99 50.34C193.363 49.5667 194.01 48.8667 194.93 48.24C195.85 47.6 197.09 47.0667 198.65 46.64C200.21 46.2133 202.177 45.9733 204.55 45.92V45.04C204.55 43.8267 204.297 42.9533 203.79 42.42C203.297 41.8733 202.59 41.6 201.67 41.6C200.937 41.6 200.337 41.68 199.87 41.84C199.403 42 198.983 42.18 198.61 42.38C198.25 42.58 197.897 42.76 197.55 42.92C197.203 43.08 196.79 43.16 196.31 43.16C195.883 43.16 195.523 43.0533 195.23 42.84C194.937 42.6267 194.697 42.3733 194.51 42.08L193.39 40.14ZM220.893 37.26V58.04C220.893 59.0133 220.766 59.9267 220.513 60.78C220.273 61.6467 219.866 62.4 219.293 63.04C218.733 63.6933 217.986 64.2067 217.053 64.58C216.133 64.9533 214.986 65.14 213.613 65.14C213.106 65.14 212.64 65.1067 212.213 65.04C211.773 64.9867 211.32 64.9 210.853 64.78L211.053 61.52C211.08 61.24 211.173 61.0333 211.333 60.9C211.493 60.7667 211.813 60.7 212.293 60.7C212.773 60.7 213.166 60.66 213.473 60.58C213.78 60.5 214.02 60.36 214.193 60.16C214.38 59.96 214.506 59.6867 214.573 59.34C214.653 59.0067 214.693 58.5733 214.693 58.04V37.26H220.893ZM221.533 31.58C221.533 32.0733 221.433 32.54 221.233 32.98C221.033 33.4067 220.76 33.7867 220.413 34.12C220.066 34.44 219.66 34.7 219.193 34.9C218.74 35.0867 218.253 35.18 217.733 35.18C217.226 35.18 216.753 35.0867 216.313 34.9C215.873 34.7 215.48 34.44 215.133 34.12C214.8 33.7867 214.533 33.4067 214.333 32.98C214.146 32.54 214.053 32.0733 214.053 31.58C214.053 31.0733 214.146 30.6 214.333 30.16C214.533 29.72 214.8 29.3333 215.133 29C215.48 28.6667 215.873 28.4067 216.313 28.22C216.753 28.0333 217.226 27.94 217.733 27.94C218.253 27.94 218.74 28.0333 219.193 28.22C219.66 28.4067 220.066 28.6667 220.413 29C220.76 29.3333 221.033 29.72 221.233 30.16C221.433 30.6 221.533 31.0733 221.533 31.58ZM234.777 36.94C236.351 36.94 237.784 37.1867 239.077 37.68C240.371 38.1733 241.477 38.88 242.397 39.8C243.331 40.72 244.051 41.84 244.557 43.16C245.077 44.4667 245.337 45.94 245.337 47.58C245.337 49.2333 245.077 50.7267 244.557 52.06C244.051 53.38 243.331 54.5067 242.397 55.44C241.477 56.36 240.371 57.0733 239.077 57.58C237.784 58.0733 236.351 58.32 234.777 58.32C233.191 58.32 231.744 58.0733 230.437 57.58C229.144 57.0733 228.024 56.36 227.077 55.44C226.144 54.5067 225.417 53.38 224.897 52.06C224.391 50.7267 224.137 49.2333 224.137 47.58C224.137 45.94 224.391 44.4667 224.897 43.16C225.417 41.84 226.144 40.72 227.077 39.8C228.024 38.88 229.144 38.1733 230.437 37.68C231.744 37.1867 233.191 36.94 234.777 36.94ZM234.777 53.72C236.204 53.72 237.251 53.22 237.917 52.22C238.597 51.2067 238.937 49.6733 238.937 47.62C238.937 45.5667 238.597 44.04 237.917 43.04C237.251 42.04 236.204 41.54 234.777 41.54C233.311 41.54 232.237 42.04 231.557 43.04C230.877 44.04 230.537 45.5667 230.537 47.62C230.537 49.6733 230.877 51.2067 231.557 52.22C232.237 53.22 233.311 53.72 234.777 53.72Z" fill="#397DBC"/>
</svg>
