<svg xmlns="http://www.w3.org/2000/svg" data-name="Layer 1" viewBox="0 0 32 32"><path fill="#82c8ec" d="M21.787,23.866a15.585,15.585,0,0,1,3.338-.366h3.75A2.625,2.625,0,0,1,31.5,26.125V30.5a1,1,0,0,1-1,1h-9Z"/><path fill="#fbde53" d="M10.5,31.5h-9a1,1,0,0,1-1-1V26.125A2.625,2.625,0,0,1,3.125,23.5h3.75a15.546,15.546,0,0,1,3.341.368Z"/><path fill="#ed456a" d="M17.916,20h0a6.389,6.389,0,0,1,6.389,6.389v2.555A2.556,2.556,0,0,1,21.75,31.5H10.25a2.556,2.556,0,0,1-2.556-2.556V26.389A6.389,6.389,0,0,1,14.084,20h3.833Z"/><path fill="#fdc47b" d="M17.917,17.444v1.917A1.917,1.917,0,0,1,16,21.278h0a1.917,1.917,0,0,1-1.917-1.917V17.444Z"/><circle cx="16" cy="13.972" r="4.472" fill="#57565d"/><path fill="#ffd9aa" d="M20.325,13.473l-4.331-1.23a2,2,0,0,0-1.295.069l-2.879,1.161-.258.158c-.009.115-.034.224-.034.341a4.472,4.472,0,1,0,8.944,0,4.391,4.391,0,0,0-.046-.454Z"/><path fill="#fdc47b" d="M28.5,21.5V23A1.5,1.5,0,0,1,27,24.5h0A1.5,1.5,0,0,1,25.5,23V21.5Z"/><circle cx="27" cy="19" r="3.5" fill="#57565d"/><path fill="#ffd9aa" d="M30.142,18.54l-3-.853a2,2,0,0,0-1.295.069l-2.057.83-.255.1c-.009.1-.031.206-.031.313a3.5,3.5,0,0,0,7,0c0-.116-.023-.225-.034-.338Z"/><path fill="#fcc37a" d="M6.5,21.5V23A1.5,1.5,0,0,1,5,24.5H5A1.5,1.5,0,0,1,3.5,23V21.5Z"/><circle cx="3" cy="15.5" r="2" fill="#4c4c51"/><circle cx="5" cy="19" r="3.5" fill="#57565d"/><path fill="#ffd9aa" d="M5.5,18.09a9.6,9.6,0,0,1-3.991.82c0,.031-.009.059-.009.09a3.5,3.5,0,0,0,7,0c0-.057-.014-.11-.017-.167A8.352,8.352,0,0,1,5.5,18.09Z"/></svg>