<svg xmlns="http://www.w3.org/2000/svg" viewBox="0 0 48 48"><polygon fill="#7cc9f2" points="36.43 5 36.43 47.25 4.75 47.25 4.75 45.51 4.76 43 32.42 43 32.42 5 36.43 5"/><polygon fill="#c1ecfb" points="32.42 .75 32.42 43 .75 43 .75 8.99 8.95 .75 32.42 .75"/><polygon fill="#7cc9f2" points="8.945 .751 8.945 8.947 .75 8.947 8.945 .751"/><polygon fill="#fcac44" points="40.625 33.409 42.604 40.14 44.596 33.413 40.625 33.409"/><rect width="3.971" height="15.88" x="40.632" y="17.531" fill="#ff953f"/><path fill="#fcac44" d="M44.62,9.85v2.46l-.01,5.22H40.64l.01-7.68a1.985,1.985,0,1,1,3.97,0Z"/><path fill="#7cc9f2" d="M19.249 6.525A9.508 9.508 0 0 1 17.584 5.6a9.508 9.508 0 0 1-1.665.924 7.972 7.972 0 0 1-2.309.48s.358 4.233.776 4.963a6.292 6.292 0 0 0 3.2 2.63h0a6.292 6.292 0 0 0 3.2-2.63c.418-.73.776-4.963.776-4.963A7.967 7.967 0 0 1 19.249 6.525zM26.223 21.316H8.945a.75.75 0 0 1 0-1.5H26.223a.75.75 0 0 1 0 1.5zM26.223 25.526H17.584a.75.75 0 0 1 0-1.5h8.639a.75.75 0 0 1 0 1.5zM14.919 25.526H8.945a.75.75 0 0 1 0-1.5h5.974a.75.75 0 0 1 0 1.5zM26.223 29.737H8.945a.75.75 0 0 1 0-1.5H26.223a.75.75 0 0 1 0 1.5zM26.223 33.948H23.494a.75.75 0 0 1 0-1.5h2.729a.75.75 0 0 1 0 1.5zM20.892 33.948H8.945a.75.75 0 0 1 0-1.5H20.892a.75.75 0 1 1 0 1.5zM26.223 38.158H8.945a.75.75 0 0 1 0-1.5H26.223a.75.75 0 0 1 0 1.5z"/><path fill="#ff953f" d="M48,12.63v4.98a.75.75,0,0,1-1.5,0V12.63a.322.322,0,0,0-.32-.32H44.62v-1.5h1.56A1.827,1.827,0,0,1,48,12.63Z"/><path fill="#c1ecfb" d="M17.673,11.144h0a.747.747,0,0,1-.53-.22l-.806-.806a.75.75,0,1,1,1.06-1.06l.276.275,1.082-1.081a.75.75,0,0,1,1.06,1.06L18.2,10.924A.749.749,0,0,1,17.673,11.144Z"/></svg>